<?xml version="1.0" encoding="utf-8"?>
<!-- Generator: Adobe Illustrator 17.0.0, SVG Export Plug-In . SVG Version: 6.00 Build 0)  -->
<!DOCTYPE svg PUBLIC "-//W3C//DTD SVG 1.1//EN" "http://www.w3.org/Graphics/SVG/1.1/DTD/svg11.dtd">
<svg version="1.1" id="Layer_1" xmlns="http://www.w3.org/2000/svg" xmlns:xlink="http://www.w3.org/1999/xlink" x="0px" y="0px"
	 width="346.064px" height="340.955px" viewBox="0 0 346.064 340.955" enable-background="new 0 0 346.064 340.955"
	 xml:space="preserve">
<g>
	<path fill="#FFFFFF" stroke="#FFFFFF" stroke-miterlimit="10" d="M97.071,302.698v17.582c0,0-21.978-3.297-31.868-17.582
		c-9.89-14.286-31.154-12.088-31.154-25.275c0-13.187-12.802-1.099-21.593-38.462S-1.83,220.28,1.467,192.808
		c0,0-3.297-26.374,7.692-32.967c0,0-5.495-27.473,1.099-34.066s-1.813-17.582,10.989-29.67s10.989-31.868,19.78-36.264
		s5.495-20.879,18.681-26.374s14.286-17.582,30.769-18.681s30.769,4.396,42.857,0S159.577,0.5,171.731,0.5
		c12.154,0,33.033,10.989,46.22,10.989s38.462,2.198,38.462,2.198l15.385,6.593l12.088,12.088c0,0,7.692,2.198,9.89,9.89
		c2.198,7.692,2.198,13.187,14.286,26.374c12.088,13.187,9.89,3.297,13.187,19.78c3.297,16.484,6.593,28.571,8.791,35.165
		c2.198,6.593,6.835,1.099,10.011,21.978c3.176,20.879-3.176,28.571,0,45.055c3.176,16.484,8.67-6.593,3.176,16.484
		s-3.297,23.077-7.692,32.967c-4.396,9.89,2.198-6.593-9.89,15.385c-12.088,21.978-12.088,27.473-20.879,31.868
		c-8.791,4.396-25.275,9.89-29.67,12.088c-4.396,2.198-8.791,26.374-24.176,27.473s-40.659,6.593-40.659,6.593
		s5.495-4.396-2.198-20.879c0,0,10.989-17.582,15.385-17.582c0,0,10.989-28.571,8.791-37.363c0,0,19.78-41.758,16.484-56.044
		c0,0-29.67-65.934-29.67-103.297c0,0-59.341,0-80.22-17.582c0,0-60.44-4.396-51.648,39.56l2.198,72.527
		c0,0-27.473,51.648,5.495,100L97.071,302.698z"/>
	<path fill="none" stroke="#FFFFFF" stroke-width="2" stroke-miterlimit="10" d="M136.632,237.863c0,0-7.692,23.077-18.681,35.165"
		/>
	<path fill="none" stroke="#FFFFFF" stroke-width="2" stroke-miterlimit="10" d="M131.137,273.027c0,0,36.264,15.002,72.527,0"/>
	<path fill="none" stroke="#FFFFFF" stroke-width="2" stroke-miterlimit="10" d="M149.819,247.753c0,0,36.264,15.385,37.363-21.978
		c0,0-8.791-29.67,0-45.055c0,0,2.337-4.448,26.374-5.495"/>
	<path fill="#FFFFFF" stroke="#FFFFFF" stroke-miterlimit="10" d="M110.258,195.005c0,0,13.187-15.385,39.56,0
		C149.819,195.005,131.64,213.805,110.258,195.005z"/>
	<path fill="#FFFFFF" stroke="#FFFFFF" stroke-miterlimit="10" d="M233.335,195.005c0,0-18.178,18.799-39.56,0
		C193.775,195.005,206.962,179.621,233.335,195.005"/>
	<path fill="none" stroke="#FFFFFF" stroke-width="2" stroke-miterlimit="10" d="M203.665,237.863c0,0,13.187,19.409,29.67,17.397"
		/>
	<path fill="none" stroke="#FFFFFF" stroke-width="2" stroke-miterlimit="10" d="M149.819,319.181c0,0,25.58-7.734,43.956,0"/>
	<path fill="none" stroke="#FFFFFF" stroke-width="2" stroke-miterlimit="10" d="M94.874,292.808c0,0,27.473,41.758,41.758,40.659
		c14.286-1.099,56.888,22.595,74.049-14.286"/>
</g>
</svg>
